<?xml version="1.0" encoding="UTF-8" standalone="no"?>
<!-- Created with Inkscape (http://www.inkscape.org/) -->

<svg
   id="svg8"
   version="1.1"
   viewBox="0 0 108.49831 48.425407"
   height="48.425404mm"
   width="108.49831mm"
   xmlns="http://www.w3.org/2000/svg"
   xmlns:svg="http://www.w3.org/2000/svg"
   xmlns:rdf="http://www.w3.org/1999/02/22-rdf-syntax-ns#"
   xmlns:cc="http://creativecommons.org/ns#"
   xmlns:dc="http://purl.org/dc/elements/1.1/">
  <defs
     id="defs2">
    <marker
       orient="auto"
       refY="0"
       refX="0"
       id="marker10215"
       style="overflow:visible">
      <path
         id="path10213"
         d="M 0,0 5,-5 -12.5,0 5,5 Z"
         style="fill:#000000;fill-opacity:1;fill-rule:evenodd;stroke:#000000;stroke-width:1.00000003pt;stroke-opacity:1"
         transform="matrix(-0.4,0,0,-0.4,-4,0)" />
    </marker>
    <marker
       orient="auto"
       refY="0"
       refX="0"
       id="marker10049"
       style="overflow:visible">
      <path
         id="path10047"
         d="M 0,0 5,-5 -12.5,0 5,5 Z"
         style="fill:#000000;fill-opacity:1;fill-rule:evenodd;stroke:#000000;stroke-width:1.00000003pt;stroke-opacity:1"
         transform="matrix(-0.8,0,0,-0.8,-10,0)" />
    </marker>
    <marker
       orient="auto"
       refY="0"
       refX="0"
       id="Arrow1Mstart"
       style="overflow:visible">
      <path
         id="path2129"
         d="M 0,0 5,-5 -12.5,0 5,5 Z"
         style="fill:#000000;fill-opacity:1;fill-rule:evenodd;stroke:#000000;stroke-width:1.00000003pt;stroke-opacity:1"
         transform="matrix(0.4,0,0,0.4,4,0)" />
    </marker>
    <marker
       style="overflow:visible"
       id="marker9719"
       refX="0"
       refY="0"
       orient="auto">
      <path
         transform="scale(-0.6)"
         d="M 8.7185878,4.0337352 -2.2072895,0.01601326 8.7185884,-4.0017078 c -1.7454984,2.3720609 -1.7354408,5.6174519 -6e-7,8.035443 z"
         style="fill:#000000;fill-opacity:1;fill-rule:evenodd;stroke:#000000;stroke-width:0.625;stroke-linejoin:round;stroke-opacity:1"
         id="path9717" />
    </marker>
    <marker
       orient="auto"
       refY="0"
       refX="0"
       id="Arrow1Mend"
       style="overflow:visible">
      <path
         id="path2132"
         d="M 0,0 5,-5 -12.5,0 5,5 Z"
         style="fill:#ff0000;fill-opacity:1;fill-rule:evenodd;stroke:#ff0000;stroke-width:1.00000003pt;stroke-opacity:1"
         transform="matrix(-0.4,0,0,-0.4,-4,0)" />
    </marker>
    <marker
       orient="auto"
       refY="0"
       refX="0"
       id="Arrow2Mend"
       style="overflow:visible">
      <path
         id="path2150"
         style="fill:#ff0000;fill-opacity:1;fill-rule:evenodd;stroke:#ff0000;stroke-width:0.625;stroke-linejoin:round;stroke-opacity:1"
         d="M 8.7185878,4.0337352 -2.2072895,0.01601326 8.7185884,-4.0017078 c -1.7454984,2.3720609 -1.7354408,5.6174519 -6e-7,8.035443 z"
         transform="scale(-0.6)" />
    </marker>
    <marker
       orient="auto"
       refY="0"
       refX="0"
       id="Arrow1Send"
       style="overflow:visible">
      <path
         id="path2138"
         d="M 0,0 5,-5 -12.5,0 5,5 Z"
         style="fill:#000000;fill-opacity:1;fill-rule:evenodd;stroke:#000000;stroke-width:1.00000003pt;stroke-opacity:1"
         transform="matrix(-0.2,0,0,-0.2,-1.2,0)" />
    </marker>
    <marker
       orient="auto"
       refY="0"
       refX="0"
       id="marker2388"
       style="overflow:visible">
      <path
         id="path2126"
         d="M 0,0 5,-5 -12.5,0 5,5 Z"
         style="fill:#000000;fill-opacity:1;fill-rule:evenodd;stroke:#000000;stroke-width:1.00000003pt;stroke-opacity:1"
         transform="matrix(-0.8,0,0,-0.8,-10,0)" />
    </marker>
    <marker
       style="overflow:visible"
       id="marker1898"
       refX="0"
       refY="0"
       orient="auto">
      <path
         transform="matrix(-0.8,0,0,-0.8,-10,0)"
         style="fill:#fe0000;fill-opacity:1;fill-rule:evenodd;stroke:#fe0000;stroke-width:1.00000003pt;stroke-opacity:1"
         d="M 0,0 5,-5 -12.5,0 5,5 Z"
         id="path1896" />
    </marker>
    <marker
       style="overflow:visible"
       id="Arrow1Lend"
       refX="0"
       refY="0"
       orient="auto">
      <path
         transform="matrix(-0.8,0,0,-0.8,-10,0)"
         style="fill:#fe0000;fill-opacity:1;fill-rule:evenodd;stroke:#fe0000;stroke-width:1.00000003pt;stroke-opacity:1"
         d="M 0,0 5,-5 -12.5,0 5,5 Z"
         id="path929" />
    </marker>
    <marker
       style="overflow:visible"
       id="Arrow1Lstart"
       refX="0"
       refY="0"
       orient="auto">
      <path
         transform="matrix(0.8,0,0,0.8,10,0)"
         style="fill:#000000;fill-opacity:1;fill-rule:evenodd;stroke:#000000;stroke-width:1.00000003pt;stroke-opacity:1"
         d="M 0,0 5,-5 -12.5,0 5,5 Z"
         id="path926" />
    </marker>
    <marker
       style="overflow:visible"
       id="marker1898-4"
       refX="0"
       refY="0"
       orient="auto">
      <path
         transform="matrix(-0.8,0,0,-0.8,-10,0)"
         style="fill:#fe0000;fill-opacity:1;fill-rule:evenodd;stroke:#fe0000;stroke-width:1.00000003pt;stroke-opacity:1"
         d="M 0,0 5,-5 -12.5,0 5,5 Z"
         id="path1896-3" />
    </marker>
    <marker
       orient="auto"
       refY="0"
       refX="0"
       id="Arrow2Mend-5-8"
       style="overflow:visible">
      <path
         id="path2150-6-2"
         style="fill:#ff0000;fill-opacity:1;fill-rule:evenodd;stroke:#ff0000;stroke-width:0.625;stroke-linejoin:round;stroke-opacity:1"
         d="M 8.7185878,4.0337352 -2.2072895,0.01601326 8.7185884,-4.0017078 c -1.7454984,2.3720609 -1.7354408,5.6174519 -6e-7,8.035443 z"
         transform="scale(-0.6)" />
    </marker>
    <marker
       orient="auto"
       refY="0"
       refX="0"
       id="Arrow2Mend-5-5"
       style="overflow:visible">
      <path
         id="path2150-6-9"
         style="fill:#fe0000;fill-opacity:1;fill-rule:evenodd;stroke:#fe0000;stroke-width:0.625;stroke-linejoin:round;stroke-opacity:1"
         d="M 8.7185878,4.0337352 -2.2072895,0.01601326 8.7185884,-4.0017078 c -1.7454984,2.3720609 -1.7354408,5.6174519 -6e-7,8.035443 z"
         transform="scale(-0.6)" />
    </marker>
    <marker
       orient="auto"
       refY="0"
       refX="0"
       id="Arrow2Mend-5-5-3"
       style="overflow:visible">
      <path
         id="path2150-6-9-0"
         style="fill:#fe0000;fill-opacity:1;fill-rule:evenodd;stroke:#fe0000;stroke-width:0.625;stroke-linejoin:round;stroke-opacity:1"
         d="M 8.7185878,4.0337352 -2.2072895,0.01601326 8.7185884,-4.0017078 c -1.7454984,2.3720609 -1.7354408,5.6174519 -6e-7,8.035443 z"
         transform="scale(-0.6)" />
    </marker>
    <marker
       orient="auto"
       refY="0"
       refX="0"
       id="Arrow2Mend-5-5-3-1"
       style="overflow:visible">
      <path
         id="path2150-6-9-0-4"
         style="fill:#fe0000;fill-opacity:1;fill-rule:evenodd;stroke:#fe0000;stroke-width:0.625;stroke-linejoin:round;stroke-opacity:1"
         d="M 8.7185878,4.0337352 -2.2072895,0.01601326 8.7185884,-4.0017078 c -1.7454984,2.3720609 -1.7354408,5.6174519 -6e-7,8.035443 z"
         transform="scale(-0.6)" />
    </marker>
    <marker
       orient="auto"
       refY="0"
       refX="0"
       id="Arrow2Mend-5-5-3-1-8"
       style="overflow:visible">
      <path
         id="path2150-6-9-0-4-6"
         style="fill:#fe0000;fill-opacity:1;fill-rule:evenodd;stroke:#fe0000;stroke-width:0.625;stroke-linejoin:round;stroke-opacity:1"
         d="M 8.7185878,4.0337352 -2.2072895,0.01601326 8.7185884,-4.0017078 c -1.7454984,2.3720609 -1.7354408,5.6174519 -6e-7,8.035443 z"
         transform="scale(-0.6)" />
    </marker>
    <marker
       orient="auto"
       refY="0"
       refX="0"
       id="Arrow2Mend-5-5-3-1-8-8"
       style="overflow:visible">
      <path
         id="path2150-6-9-0-4-6-6"
         style="fill:#fe0000;fill-opacity:1;fill-rule:evenodd;stroke:#fe0000;stroke-width:0.625;stroke-linejoin:round;stroke-opacity:1"
         d="M 8.7185878,4.0337352 -2.2072895,0.01601326 8.7185884,-4.0017078 c -1.7454984,2.3720609 -1.7354408,5.6174519 -6e-7,8.035443 z"
         transform="scale(-0.6)" />
    </marker>
    <marker
       orient="auto"
       refY="0"
       refX="0"
       id="Arrow2Mend-5-5-3-1-8-8-2"
       style="overflow:visible">
      <path
         id="path2150-6-9-0-4-6-6-8"
         style="fill:#fe0000;fill-opacity:1;fill-rule:evenodd;stroke:#fe0000;stroke-width:0.625;stroke-linejoin:round;stroke-opacity:1"
         d="M 8.7185878,4.0337352 -2.2072895,0.01601326 8.7185884,-4.0017078 c -1.7454984,2.3720609 -1.7354408,5.6174519 -6e-7,8.035443 z"
         transform="scale(-0.6)" />
    </marker>
    <marker
       orient="auto"
       refY="0"
       refX="0"
       id="Arrow2Mend-5-5-3-1-8-8-2-7"
       style="overflow:visible">
      <path
         id="path2150-6-9-0-4-6-6-8-1"
         style="fill:#fe0000;fill-opacity:1;fill-rule:evenodd;stroke:#fe0000;stroke-width:0.625;stroke-linejoin:round;stroke-opacity:1"
         d="M 8.7185878,4.0337352 -2.2072895,0.01601326 8.7185884,-4.0017078 c -1.7454984,2.3720609 -1.7354408,5.6174519 -6e-7,8.035443 z"
         transform="scale(-0.6)" />
    </marker>
    <marker
       orient="auto"
       refY="0"
       refX="0"
       id="Arrow2Mend-5-5-3-1-8-8-2-7-8"
       style="overflow:visible">
      <path
         id="path2150-6-9-0-4-6-6-8-1-7"
         style="fill:#fe0000;fill-opacity:1;fill-rule:evenodd;stroke:#fe0000;stroke-width:0.625;stroke-linejoin:round;stroke-opacity:1"
         d="M 8.7185878,4.0337352 -2.2072895,0.01601326 8.7185884,-4.0017078 c -1.7454984,2.3720609 -1.7354408,5.6174519 -6e-7,8.035443 z"
         transform="scale(-0.6)" />
    </marker>
    <marker
       orient="auto"
       refY="0"
       refX="0"
       id="Arrow2Mend-5-5-3-1-8-8-2-7-8-6"
       style="overflow:visible">
      <path
         id="path2150-6-9-0-4-6-6-8-1-7-9"
         style="fill:#fe0000;fill-opacity:1;fill-rule:evenodd;stroke:#fe0000;stroke-width:0.625;stroke-linejoin:round;stroke-opacity:1"
         d="M 8.7185878,4.0337352 -2.2072895,0.01601326 8.7185884,-4.0017078 c -1.7454984,2.3720609 -1.7354408,5.6174519 -6e-7,8.035443 z"
         transform="scale(-0.6)" />
    </marker>
    <marker
       orient="auto"
       refY="0"
       refX="0"
       id="Arrow2Mend-5-5-3-1-8-8-2-7-5"
       style="overflow:visible">
      <path
         id="path2150-6-9-0-4-6-6-8-1-1"
         style="fill:#fe0000;fill-opacity:1;fill-rule:evenodd;stroke:#fe0000;stroke-width:0.625;stroke-linejoin:round;stroke-opacity:1"
         d="M 8.7185878,4.0337352 -2.2072895,0.01601326 8.7185884,-4.0017078 c -1.7454984,2.3720609 -1.7354408,5.6174519 -6e-7,8.035443 z"
         transform="scale(-0.6)" />
    </marker>
    <path
       d="m 2.21171,-3.64633 v -2.45081 c 0,-0.32876 0.01992,-0.3985 0.48817,-0.3985 h 1.23536 c 0.96638,0 1.31507,0.84682 1.31507,1.37484 0,0.63761 -0.48817,1.47447 -1.59402,1.47447 z m 2.35118,0.08967 c 0.96638,-0.18929 1.6538,-0.8269 1.6538,-1.56414 0,-0.86675 -0.91657,-1.68368 -2.21171,-1.68368 H 0.358655 v 0.30884 h 0.239103 c 0.767122,0 0.787052,0.10959 0.787052,0.46824 v 5.250314 c 0,0.358655 -0.01993,0.468244 -0.787052,0.468244 H 0.358655 V 0 H 4.26401 c 1.32503,0 2.22167,-0.886675 2.22167,-1.82316 0,-0.86675 -0.81694,-1.61395 -1.92279,-1.7335 z M 3.94521,-0.308842 H 2.69988 c -0.46825,0 -0.48817,-0.069738 -0.48817,-0.398505 V -3.42715 h 1.87297 c 0.9863,0 1.40473,0.92653 1.40473,1.59402 0,0.70735 -0.51805,1.524288 -1.5442,1.524288 z"
       id="equation_00_00-0" />
    <path
       d="M 5.79826,-6.7746 H 0.328767 v 0.30885 H 0.56787 c 0.76712,0 0.78705,0.10959 0.78705,0.46824 v 5.220424 c 0,0.358655 -0.01993,0.468244 -0.78705,0.468244 H 0.328767 V 0 C 0.67746,-0.0298879 1.45455,-0.0298879 1.84309,-0.0298879 c 0.40847,0 1.31507,0 1.67372,0.0298879 V -0.308842 H 3.18804 c -0.94645,0 -0.94645,-0.129514 -0.94645,-0.478207 V -3.23786 h 0.85679 c 0.95641,0 1.05604,0.31881 1.05604,1.16563 h 0.24907 v -2.6401 H 4.15442 c 0,0.83686 -0.09963,1.16563 -1.05604,1.16563 H 2.24159 v -2.52055 c 0,-0.32876 0.01993,-0.3985 0.48817,-0.3985 h 1.19552 c 1.4944,0 1.74346,0.5579 1.90286,1.93275 h 0.24907 z"
       id="equation_00_01-6" />
  </defs>
  <metadata
     id="metadata5">
    <rdf:RDF>
      <cc:Work
         rdf:about="">
        <dc:format>image/svg+xml</dc:format>
        <dc:type
           rdf:resource="http://purl.org/dc/dcmitype/StillImage" />
      </cc:Work>
    </rdf:RDF>
  </metadata>
  <g
     id="layer2">
    <rect
       style="fill:#ffffff;stroke-width:0.264583"
       id="rect1"
       width="108.66815"
       height="48.380955"
       x="0"
       y="0" />
  </g>
  <g
     id="layer1"
     transform="translate(-42.335732,-101.9142)"
     style="display:inline" />
  <circle
     r="2.3809526"
     cy="-47.818016"
     cx="38.587204"
     id="path922-16"
     style="opacity:1;vector-effect:none;fill:none;fill-opacity:1;stroke:#000000;stroke-width:0.23809522;stroke-linecap:butt;stroke-linejoin:miter;stroke-miterlimit:4;stroke-dasharray:none;stroke-dashoffset:0;stroke-opacity:1"
     transform="rotate(90)" />
  <circle
     r="2.3809526"
     cy="-34.845257"
     cx="32.454288"
     id="path922-16-4-2-4-8-58-2"
     style="opacity:1;vector-effect:none;fill:none;fill-opacity:1;stroke:#000000;stroke-width:0.23809522;stroke-linecap:butt;stroke-linejoin:miter;stroke-miterlimit:4;stroke-dasharray:none;stroke-dashoffset:0;stroke-opacity:1"
     transform="rotate(90)" />
  <circle
     r="2.3809526"
     cy="-43.010265"
     cx="37.534939"
     id="path922-16-4-2-4-8-58-2-0-7"
     style="opacity:1;vector-effect:none;fill:none;fill-opacity:1;stroke:#000000;stroke-width:0.23809522;stroke-linecap:butt;stroke-linejoin:miter;stroke-miterlimit:4;stroke-dasharray:none;stroke-dashoffset:0;stroke-opacity:1"
     transform="rotate(90)" />
  <circle
     r="2.3809526"
     cy="-46.214283"
     cx="34.12439"
     id="path922-16-4-2-4-8-58-2-0-7-2"
     style="opacity:1;vector-effect:none;fill:none;fill-opacity:1;stroke:#000000;stroke-width:0.23809522;stroke-linecap:butt;stroke-linejoin:miter;stroke-miterlimit:4;stroke-dasharray:none;stroke-dashoffset:0;stroke-opacity:1"
     transform="rotate(90)" />
  <circle
     r="2.3809526"
     cy="-5.0891299"
     cx="31.841661"
     id="path922-16-7-9"
     style="opacity:1;vector-effect:none;fill:none;fill-opacity:1;stroke:#000000;stroke-width:0.23809522;stroke-linecap:butt;stroke-linejoin:miter;stroke-miterlimit:4;stroke-dasharray:none;stroke-dashoffset:0;stroke-opacity:1"
     transform="rotate(90)" />
  <circle
     r="2.3809526"
     cy="-15.804751"
     cx="32.087345"
     id="path922-16-7-9-7"
     style="opacity:1;vector-effect:none;fill:none;fill-opacity:1;stroke:#000000;stroke-width:0.23809522;stroke-linecap:butt;stroke-linejoin:miter;stroke-miterlimit:4;stroke-dasharray:none;stroke-dashoffset:0;stroke-opacity:1"
     transform="rotate(90)" />
  <circle
     r="2.3809526"
     cy="-2.5000002"
     cx="37.265614"
     id="path922-16-7-9-7-5-2"
     style="opacity:1;vector-effect:none;fill:none;fill-opacity:1;stroke:#000000;stroke-width:0.23809522;stroke-linecap:butt;stroke-linejoin:miter;stroke-miterlimit:4;stroke-dasharray:none;stroke-dashoffset:0;stroke-opacity:1"
     transform="rotate(90)" />
  <circle
     r="2.3809526"
     cy="-41.752823"
     cx="32.7677"
     id="path922-16-4-2-4-8-58-2-0-7-2-1-9"
     style="opacity:1;vector-effect:none;fill:none;fill-opacity:1;stroke:#000000;stroke-width:0.23809522;stroke-linecap:butt;stroke-linejoin:miter;stroke-miterlimit:4;stroke-dasharray:none;stroke-dashoffset:0;stroke-opacity:1"
     transform="rotate(90)" />
  <circle
     r="2.3809526"
     cy="-38.275444"
     cx="36.018284"
     id="path922-16-4-2-4-8-58-2-0-7-2-1-9-8"
     style="opacity:1;vector-effect:none;fill:none;fill-opacity:1;stroke:#000000;stroke-width:0.23809522;stroke-linecap:butt;stroke-linejoin:miter;stroke-miterlimit:4;stroke-dasharray:none;stroke-dashoffset:0;stroke-opacity:1"
     transform="rotate(90)" />
  <circle
     r="2.3809526"
     cy="-10.703382"
     cx="32.65432"
     id="path922-16-4-2-4-8-58-2-0-7-2-1-9-8-6-1-3"
     style="opacity:1;vector-effect:none;fill:none;fill-opacity:1;stroke:#000000;stroke-width:0.23809522;stroke-linecap:butt;stroke-linejoin:miter;stroke-miterlimit:4;stroke-dasharray:none;stroke-dashoffset:0;stroke-opacity:1"
     transform="rotate(90)" />
  <g
     transform="matrix(0.76354951,0,0,0.99917755,0.38479423,-41.043622)"
     id="equation_00-1"
     style="fill:#000000;stroke:#0000ff;stroke-opacity:1"
     title="F\_{B}">
    <defs
       id="defs3429-1">
      <path
         d="m 2.21171,-3.64633 v -2.45081 c 0,-0.32876 0.01992,-0.3985 0.48817,-0.3985 h 1.23536 c 0.96638,0 1.31507,0.84682 1.31507,1.37484 0,0.63761 -0.48817,1.47447 -1.59402,1.47447 z m 2.35118,0.08967 c 0.96638,-0.18929 1.6538,-0.8269 1.6538,-1.56414 0,-0.86675 -0.91657,-1.68368 -2.21171,-1.68368 H 0.358655 v 0.30884 h 0.239103 c 0.767122,0 0.787052,0.10959 0.787052,0.46824 v 5.250314 c 0,0.358655 -0.01993,0.468244 -0.787052,0.468244 H 0.358655 V 0 H 4.26401 c 1.32503,0 2.22167,-0.886675 2.22167,-1.82316 0,-0.86675 -0.81694,-1.61395 -1.92279,-1.7335 z M 3.94521,-0.308842 H 2.69988 c -0.46825,0 -0.48817,-0.069738 -0.48817,-0.398505 V -3.42715 h 1.87297 c 0.9863,0 1.40473,0.92653 1.40473,1.59402 0,0.70735 -0.51805,1.524288 -1.5442,1.524288 z"
         id="path9486" />
      <path
         d="M 5.79826,-6.7746 H 0.328767 v 0.30885 H 0.56787 c 0.76712,0 0.78705,0.10959 0.78705,0.46824 v 5.220424 c 0,0.358655 -0.01993,0.468244 -0.78705,0.468244 H 0.328767 V 0 C 0.67746,-0.0298879 1.45455,-0.0298879 1.84309,-0.0298879 c 0.40847,0 1.31507,0 1.67372,0.0298879 V -0.308842 H 3.18804 c -0.94645,0 -0.94645,-0.129514 -0.94645,-0.478207 V -3.23786 h 0.85679 c 0.95641,0 1.05604,0.31881 1.05604,1.16563 h 0.24907 v -2.6401 H 4.15442 c 0,0.83686 -0.09963,1.16563 -1.05604,1.16563 H 2.24159 v -2.52055 c 0,-0.32876 0.01993,-0.3985 0.48817,-0.3985 h 1.19552 c 1.4944,0 1.74346,0.5579 1.90286,1.93275 h 0.24907 z"
         id="path9488" />
    </defs>
  </g>
  <circle
     r="2.3809526"
     cy="-7.1892619"
     cx="36.000237"
     id="path922-16-4-2-4-8-58-2-0-7-2-1-9-8-6-1-3-9-9-8-0"
     style="opacity:1;vector-effect:none;fill:none;fill-opacity:1;stroke:#000000;stroke-width:0.23809522;stroke-linecap:butt;stroke-linejoin:miter;stroke-miterlimit:4;stroke-dasharray:none;stroke-dashoffset:0;stroke-opacity:1"
     transform="rotate(90)" />
  <circle
     r="2.3809526"
     cy="-12.001595"
     cx="37.289864"
     id="path922-16-4-2-4-8-58-2-0-7-2-1-9-8-6-1-3-9-9-8-0-2"
     style="opacity:1;vector-effect:none;fill:none;fill-opacity:1;stroke:#000000;stroke-width:0.23809522;stroke-linecap:butt;stroke-linejoin:miter;stroke-miterlimit:4;stroke-dasharray:none;stroke-dashoffset:0;stroke-opacity:1"
     transform="rotate(90)" />
  <circle
     r="2.3809526"
     cy="-16.782995"
     cx="36.855194"
     id="path922-16-4-2-4-8-58-2-0-7-2-1-9-8-6-1-3-9-9-8-0-2-8"
     style="opacity:1;vector-effect:none;fill:none;fill-opacity:1;stroke:#000000;stroke-width:0.23809522;stroke-linecap:butt;stroke-linejoin:miter;stroke-miterlimit:4;stroke-dasharray:none;stroke-dashoffset:0;stroke-opacity:1"
     transform="rotate(90)" />
  <circle
     cy="-25.392672"
     cx="32.441059"
     id="path922-16-4-2-4-8-58-2-0-7-2-1-9-8-6-1-3-9-9-8-0-2-8-9"
     style="opacity:1;vector-effect:none;fill:none;fill-opacity:1;stroke:#000000;stroke-width:0.30000001;stroke-linecap:butt;stroke-linejoin:miter;stroke-miterlimit:4;stroke-dasharray:none;stroke-dashoffset:0;stroke-opacity:1"
     transform="rotate(90)"
     r="7.1428571" />
  <circle
     r="2.3809526"
     cy="-33.621853"
     cx="37.478855"
     id="path922-16-4-2-4-8-58-2-0-7-2-1-9-8-6-1-3-9-9-8-0-2-8-9-3"
     style="opacity:1;vector-effect:none;fill:none;fill-opacity:1;stroke:#000000;stroke-width:0.23809522;stroke-linecap:butt;stroke-linejoin:miter;stroke-miterlimit:4;stroke-dasharray:none;stroke-dashoffset:0;stroke-opacity:1"
     transform="rotate(90)" />
  <circle
     r="2.3809526"
     cy="-91.530174"
     cx="31.297525"
     id="path922-16-4-2-9"
     style="opacity:1;vector-effect:none;fill:none;fill-opacity:1;stroke:#000000;stroke-width:0.23809522;stroke-linecap:butt;stroke-linejoin:miter;stroke-miterlimit:4;stroke-dasharray:none;stroke-dashoffset:0;stroke-opacity:1"
     transform="rotate(90)" />
  <circle
     cy="-63.183971"
     cx="32.313343"
     id="path922-16-4-2-4-8-58-2-0-7-2-1-9-8-6-1-3-9-9-8-0-2-8-9-7-8"
     style="opacity:1;vector-effect:none;fill:none;fill-opacity:1;stroke:#000000;stroke-width:0.30000001;stroke-linecap:butt;stroke-linejoin:miter;stroke-miterlimit:4;stroke-dasharray:none;stroke-dashoffset:0;stroke-opacity:1"
     transform="rotate(90)"
     r="7.1428571" />
  <circle
     cy="-74.339493"
     cx="41.132549"
     id="path922-16-4-2-4-8-58-2-0-7-2-1-9-8-6-1-3-9-9-8-0-2-8-9-7-8-9"
     style="opacity:1;vector-effect:none;fill:none;fill-opacity:1;stroke:#000000;stroke-width:0.30000001;stroke-linecap:butt;stroke-linejoin:miter;stroke-miterlimit:4;stroke-dasharray:none;stroke-dashoffset:0;stroke-opacity:1"
     transform="rotate(90)"
     r="7.1428571" />
  <circle
     cy="-82.037262"
     cx="29.165182"
     id="path922-16-4-2-4-8-58-2-0-7-2-1-9-8-6-1-3-9-9-8-0-2-8-9-7-8-9-0"
     style="opacity:1;vector-effect:none;fill:none;fill-opacity:1;stroke:#000000;stroke-width:0.30000001;stroke-linecap:butt;stroke-linejoin:miter;stroke-miterlimit:4;stroke-dasharray:none;stroke-dashoffset:0;stroke-opacity:1"
     transform="rotate(90)"
     r="7.1428571" />
  <circle
     cy="-101.20546"
     cx="31.234163"
     id="path922-16-4-2-4-8-58-2-0-7-2-1-9-8-6-1-3-9-9-8-0-2-8-9-7-8-9-0-7"
     style="opacity:1;vector-effect:none;fill:none;fill-opacity:1;stroke:#000000;stroke-width:0.30000001;stroke-linecap:butt;stroke-linejoin:miter;stroke-miterlimit:4;stroke-dasharray:none;stroke-dashoffset:0;stroke-opacity:1"
     transform="rotate(90)"
     r="7.1428571" />
  <circle
     r="2.3809526"
     cy="-72.715706"
     cx="31.544413"
     id="path922-16-4-2-3"
     style="opacity:1;vector-effect:none;fill:none;fill-opacity:1;stroke:#000000;stroke-width:0.23809522;stroke-linecap:butt;stroke-linejoin:miter;stroke-miterlimit:4;stroke-dasharray:none;stroke-dashoffset:0;stroke-opacity:1"
     transform="rotate(90)" />
  <circle
     cy="-90.18161"
     cx="40.91967"
     id="path922-16-4-2-4-8-58-2-0-7-2-1-9-8-6-1-3-9-9-8-0-2-8-9-7-8-9-00"
     style="opacity:1;vector-effect:none;fill:none;fill-opacity:1;stroke:#000000;stroke-width:0.30000001;stroke-linecap:butt;stroke-linejoin:miter;stroke-miterlimit:4;stroke-dasharray:none;stroke-dashoffset:0;stroke-opacity:1"
     transform="rotate(90)"
     r="7.1428571" />
  <path
     style="fill:none;stroke:#000000;stroke-width:0.26458332px;stroke-linecap:butt;stroke-linejoin:miter;stroke-opacity:1;marker-end:url(#marker10049)"
     d="M 35.087807,14.668164 H 67.694686"
     id="path1316" />
  <text
     xml:space="preserve"
     style="font-style:normal;font-variant:normal;font-weight:normal;font-stretch:normal;font-size:2.11667px;line-height:1.25;font-family:sans-serif;-inkscape-font-specification:'sans-serif, Normal';font-variant-ligatures:normal;font-variant-caps:normal;font-variant-numeric:normal;font-feature-settings:normal;text-align:center;letter-spacing:0px;word-spacing:0px;writing-mode:lr-tb;text-anchor:middle;fill:#000000;fill-opacity:1;stroke:none;stroke-width:0.264583"
     x="50.592911"
     y="13.173454"
     id="text1488"><tspan
       x="50.592911"
       y="13.173454"
       id="tspan1486"
       style="stroke-width:0.264583"><tspan
         x="50.592911"
         y="13.173454"
         style="font-style:normal;font-variant:normal;font-weight:normal;font-stretch:normal;font-size:5.64444px;font-family:sans-serif;-inkscape-font-specification:'sans-serif, Normal';font-variant-ligatures:normal;font-variant-caps:normal;font-variant-numeric:normal;font-feature-settings:normal;text-align:center;writing-mode:lr-tb;text-anchor:middle;stroke-width:0.264583"
         id="tspan1484">Flow</tspan></tspan></text>
  <text
     xml:space="preserve"
     style="font-style:normal;font-variant:normal;font-weight:normal;font-stretch:normal;font-size:2.11667px;line-height:1.25;font-family:sans-serif;-inkscape-font-specification:'sans-serif, Normal';font-variant-ligatures:normal;font-variant-caps:normal;font-variant-numeric:normal;font-feature-settings:normal;text-align:center;letter-spacing:0px;word-spacing:0px;writing-mode:lr-tb;text-anchor:middle;fill:#000000;fill-opacity:1;stroke:none;stroke-width:0.264583"
     x="25.923843"
     y="4.9755378"
     id="text1476"><tspan
       x="25.923843"
       y="4.9755378"
       id="tspan1474"
       style="stroke-width:0.264583"><tspan
         x="25.923843"
         y="4.9755378"
         style="font-style:normal;font-variant:normal;font-weight:normal;font-stretch:normal;font-size:5.64444px;font-family:sans-serif;-inkscape-font-specification:'sans-serif, Normal';font-variant-ligatures:normal;font-variant-caps:normal;font-variant-numeric:normal;font-feature-settings:normal;text-align:center;writing-mode:lr-tb;text-anchor:middle;stroke-width:0.264583"
         id="tspan1472">突出効果</tspan></tspan></text>
  <text
     xml:space="preserve"
     style="font-style:normal;font-variant:normal;font-weight:normal;font-stretch:normal;font-size:2.11667px;line-height:1.25;font-family:sans-serif;-inkscape-font-specification:'sans-serif, Normal';font-variant-ligatures:normal;font-variant-caps:normal;font-variant-numeric:normal;font-feature-settings:normal;text-align:center;letter-spacing:0px;word-spacing:0px;writing-mode:lr-tb;text-anchor:middle;fill:#000000;fill-opacity:1;stroke:none;stroke-width:0.264583"
     x="82.765244"
     y="4.652257"
     id="text1482"><tspan
       x="82.765244"
       y="4.652257"
       id="tspan1480"
       style="stroke-width:0.264583"><tspan
         x="82.765244"
         y="4.652257"
         style="font-style:normal;font-variant:normal;font-weight:normal;font-stretch:normal;font-size:5.64444px;font-family:sans-serif;-inkscape-font-specification:'sans-serif, Normal';font-variant-ligatures:normal;font-variant-caps:normal;font-variant-numeric:normal;font-feature-settings:normal;text-align:center;writing-mode:lr-tb;text-anchor:middle;stroke-width:0.264583"
         id="tspan1478">遮蔽効果</tspan></tspan></text>
</svg>
