<?xml version="1.0" encoding="UTF-8" standalone="no"?>
<!-- Created with Inkscape (http://www.inkscape.org/) -->

<svg
   xmlns:dc="http://purl.org/dc/elements/1.1/"
   xmlns:cc="http://creativecommons.org/ns#"
   xmlns:rdf="http://www.w3.org/1999/02/22-rdf-syntax-ns#"
   xmlns:svg="http://www.w3.org/2000/svg"
   xmlns="http://www.w3.org/2000/svg"
   xmlns:xlink="http://www.w3.org/1999/xlink"
   xmlns:sodipodi="http://sodipodi.sourceforge.net/DTD/sodipodi-0.dtd"
   xmlns:inkscape="http://www.inkscape.org/namespaces/inkscape"
   width="52.933479mm"
   height="48.317364mm"
   viewBox="0 0 52.933479 48.317364"
   version="1.1"
   id="svg8"
   inkscape:version="0.92.3 (2405546, 2018-03-11)"
   sodipodi:docname="setting_vel.svg">
  <sodipodi:namedview
     id="base"
     pagecolor="#ffffff"
     bordercolor="#666666"
     borderopacity="1.0"
     inkscape:pageopacity="0.0"
     inkscape:pageshadow="2"
     inkscape:zoom="0.7"
     inkscape:cx="-43.12159"
     inkscape:cy="56.495443"
     inkscape:document-units="mm"
     inkscape:current-layer="equation_00_g"
     showgrid="false"
     inkscape:window-width="1920"
     inkscape:window-height="1137"
     inkscape:window-x="-8"
     inkscape:window-y="-1"
     inkscape:window-maximized="1" />
  <defs
     id="defs2">
    <marker
       inkscape:isstock="true"
       style="overflow:visible"
       id="marker1898"
       refX="0"
       refY="0"
       orient="auto"
       inkscape:stockid="Arrow1Lend">
      <path
         transform="matrix(-0.8,0,0,-0.8,-10,0)"
         style="fill:#000000;fill-opacity:1;fill-rule:evenodd;stroke:#000000;stroke-width:1.00000003pt;stroke-opacity:1"
         d="M 0,0 5,-5 -12.5,0 5,5 Z"
         id="path1896"
         inkscape:connector-curvature="0" />
    </marker>
    <marker
       inkscape:isstock="true"
       style="overflow:visible"
       id="Arrow1Lend"
       refX="0"
       refY="0"
       orient="auto"
       inkscape:stockid="Arrow1Lend">
      <path
         transform="matrix(-0.8,0,0,-0.8,-10,0)"
         style="fill:#000000;fill-opacity:1;fill-rule:evenodd;stroke:#000000;stroke-width:1.00000003pt;stroke-opacity:1"
         d="M 0,0 5,-5 -12.5,0 5,5 Z"
         id="path929"
         inkscape:connector-curvature="0" />
    </marker>
    <marker
       inkscape:isstock="true"
       style="overflow:visible"
       id="Arrow1Lstart"
       refX="0"
       refY="0"
       orient="auto"
       inkscape:stockid="Arrow1Lstart">
      <path
         transform="matrix(0.8,0,0,0.8,10,0)"
         style="fill:#000000;fill-opacity:1;fill-rule:evenodd;stroke:#000000;stroke-width:1.00000003pt;stroke-opacity:1"
         d="M 0,0 5,-5 -12.5,0 5,5 Z"
         id="path926"
         inkscape:connector-curvature="0" />
    </marker>
    <marker
       inkscape:isstock="true"
       style="overflow:visible"
       id="marker1898-4"
       refX="0"
       refY="0"
       orient="auto"
       inkscape:stockid="Arrow1Lend">
      <path
         transform="matrix(-0.8,0,0,-0.8,-10,0)"
         style="fill:#000000;fill-opacity:1;fill-rule:evenodd;stroke:#000000;stroke-width:1.00000003pt;stroke-opacity:1"
         d="M 0,0 5,-5 -12.5,0 5,5 Z"
         id="path1896-3"
         inkscape:connector-curvature="0" />
    </marker>
  </defs>
  <metadata
     id="metadata5">
    <rdf:RDF>
      <cc:Work
         rdf:about="">
        <dc:format>image/svg+xml</dc:format>
        <dc:type
           rdf:resource="http://purl.org/dc/dcmitype/StillImage" />
        <dc:title></dc:title>
      </cc:Work>
    </rdf:RDF>
  </metadata>
  <g
     id="layer1"
     inkscape:groupmode="layer"
     inkscape:label="レイヤー 1"
     transform="translate(-58.480659,-53.491268)" />
  <circle
     r="10"
     cy="24.660511"
     cx="10.5"
     id="path922"
     style="opacity:1;vector-effect:none;fill:none;fill-opacity:1;stroke:#000000;stroke-width:1;stroke-linecap:butt;stroke-linejoin:miter;stroke-miterlimit:4;stroke-dasharray:none;stroke-dashoffset:0;stroke-opacity:1" />
  <path
     inkscape:connector-curvature="0"
     id="path1894"
     d="M 10.159838,25.492051 V 47.414632"
     style="fill:none;stroke:#000000;stroke-width:0.465;stroke-linecap:butt;stroke-linejoin:miter;stroke-miterlimit:4;stroke-dasharray:none;stroke-opacity:1;marker-end:url(#marker1898)" />
  <path
     inkscape:connector-curvature="0"
     id="path1894-6"
     d="M 10.207609,22.825315 V 0.90273366"
     style="fill:none;stroke:#000000;stroke-width:0.465;stroke-linecap:butt;stroke-linejoin:miter;stroke-miterlimit:4;stroke-dasharray:none;stroke-opacity:1;marker-end:url(#marker1898-4)" />
  <g
     transform="translate(-34.290183,-29.867756)"
     id="equation_00"
     style="fill:#000000"
     title="F\_{B}">
    <defs
       id="defs3429">
      <path
         inkscape:connector-curvature="0"
         d="m 2.21171,-3.64633 v -2.45081 c 0,-0.32876 0.01992,-0.3985 0.48817,-0.3985 h 1.23536 c 0.96638,0 1.31507,0.84682 1.31507,1.37484 0,0.63761 -0.48817,1.47447 -1.59402,1.47447 z m 2.35118,0.08967 c 0.96638,-0.18929 1.6538,-0.8269 1.6538,-1.56414 0,-0.86675 -0.91657,-1.68368 -2.21171,-1.68368 H 0.358655 v 0.30884 h 0.239103 c 0.767122,0 0.787052,0.10959 0.787052,0.46824 v 5.250314 c 0,0.358655 -0.01993,0.468244 -0.787052,0.468244 H 0.358655 V 0 H 4.26401 c 1.32503,0 2.22167,-0.886675 2.22167,-1.82316 0,-0.86675 -0.81694,-1.61395 -1.92279,-1.7335 z M 3.94521,-0.308842 H 2.69988 c -0.46825,0 -0.48817,-0.069738 -0.48817,-0.398505 V -3.42715 h 1.87297 c 0.9863,0 1.40473,0.92653 1.40473,1.59402 0,0.70735 -0.51805,1.524288 -1.5442,1.524288 z"
         id="equation_00_00" />
      <path
         inkscape:connector-curvature="0"
         d="M 5.79826,-6.7746 H 0.328767 v 0.30885 H 0.56787 c 0.76712,0 0.78705,0.10959 0.78705,0.46824 v 5.220424 c 0,0.358655 -0.01993,0.468244 -0.78705,0.468244 H 0.328767 V 0 C 0.67746,-0.0298879 1.45455,-0.0298879 1.84309,-0.0298879 c 0.40847,0 1.31507,0 1.67372,0.0298879 V -0.308842 H 3.18804 c -0.94645,0 -0.94645,-0.129514 -0.94645,-0.478207 V -3.23786 h 0.85679 c 0.95641,0 1.05604,0.31881 1.05604,1.16563 h 0.24907 v -2.6401 H 4.15442 c 0,0.83686 -0.09963,1.16563 -1.05604,1.16563 H 2.24159 v -2.52055 c 0,-0.32876 0.01993,-0.3985 0.48817,-0.3985 h 1.19552 c 1.4944,0 1.74346,0.5579 1.90286,1.93275 h 0.24907 z"
         id="equation_00_01" />
    </defs>
    <g
       id="equation_00_g">
      <g
         title="$F_B - F_G$"
         style="fill:#000000"
         id="equation_03"
         transform="translate(-27.214286,11.528274)">
        <defs
           id="defs4101">
          <path
             id="equation_03_00"
             d="m 3.01868,-3.23786 h 0.96638 c 0.74719,0 0.8269,0.1594 0.8269,0.44832 0,0.06974 0,0.18929 -0.06974,0.48817 -0.01993,0.04981 -0.02989,0.08966 -0.02989,0.10959 0,0.0797 0.05977,0.11955 0.11955,0.11955 0.09963,0 0.09963,-0.02989 0.14944,-0.20921 l 0.54795,-2.1619 c 0.02988,-0.10959 0.02988,-0.12951 0.02988,-0.1594 0,-0.01993 -0.01992,-0.10959 -0.11955,-0.10959 -0.09963,0 -0.10959,0.04981 -0.14944,0.20922 C 5.08095,-3.72603 4.85181,-3.5467 4.00498,-3.5467 H 3.09838 L 3.73599,-6.07721 C 3.82565,-6.4259 3.83562,-6.46575 4.27397,-6.46575 h 1.31507 c 1.22541,0 1.45455,0.32876 1.45455,1.09589 0,0.22914 0,0.26899 -0.02989,0.53798 -0.01993,0.12951 -0.01993,0.14944 -0.01993,0.17933 0,0.04981 0.02989,0.11955 0.11956,0.11955 0.10958,0 0.11955,-0.05978 0.13947,-0.24907 L 7.45205,-6.5056 c 0.02989,-0.269 -0.01992,-0.269 -0.26899,-0.269 H 2.30137 c -0.19925,0 -0.29888,0 -0.29888,0.19926 0,0.10959 0.08966,0.10959 0.27895,0.10959 0.36862,0 0.64758,0 0.64758,0.17932 0,0.03985 0,0.05978 -0.04982,0.23911 l -1.31507,5.270234 c -0.09962,0.388543 -0.11955,0.468244 -0.906596,0.468244 -0.169365,0 -0.278954,0 -0.278954,0.18929 C 0.37858,0 0.498132,0 0.52802,0 0.816936,0 1.55417,-0.0298879 1.84309,-0.0298879 2.17186,-0.0298879 2.99875,0 3.32752,0 c 0.08967,0 0.20922,0 0.20922,-0.18929 0,-0.079701 -0.05978,-0.099627 -0.05978,-0.109589 -0.02989,-0.009963 -0.04981,-0.009963 -0.27895,-0.009963 -0.21918,0 -0.26899,0 -0.51806,-0.019925 -0.28892,-0.029888 -0.3188,-0.069739 -0.3188,-0.199253 0,-0.019925 0,-0.079701 0.03985,-0.229141 z"
             inkscape:connector-curvature="0" />
          <path
             id="equation_03_01"
             d="m 6.56538,-2.29141 c 0.16936,0 0.34869,0 0.34869,-0.19925 0,-0.19925 -0.17933,-0.19925 -0.34869,-0.19925 H 1.17559 c -0.16936,0 -0.348691,0 -0.348691,0.19925 0,0.19925 0.179331,0.19925 0.348691,0.19925 z"
             inkscape:connector-curvature="0" />
          <path
             id="equation_03_02"
             d="m 1.32503,-0.54396 c -0.06276,0.237111 -0.07671,0.292901 -0.613697,0.292901 -0.118556,0 -0.209216,0 -0.209216,0.146451 C 0.502117,0 0.585803,0 0.711333,0 H 3.41021 c 1.17161,0 2.07123,-0.801993 2.07123,-1.4924 0,-0.49515 -0.4533,-0.92055 -1.19252,-0.99726 0.84383,-0.15343 1.54819,-0.68344 1.54819,-1.28319 0,-0.53001 -0.53699,-0.99029 -1.44359,-0.99029 H 1.85504 c -0.1325,0 -0.22316,0 -0.22316,0.15343 0,0.09763 0.08369,0.09763 0.22316,0.09763 0.00698,0 0.13948,0 0.26501,0.01395 0.14645,0.01395 0.1604,0.02789 0.1604,0.09763 0,0.01395 0,0.04882 -0.0279,0.15343 z m 1.11582,-2.02939 0.4254,-1.70162 c 0.05579,-0.21619 0.06277,-0.23711 0.35567,-0.23711 h 1.06002 c 0.71134,0 0.87173,0.46725 0.87173,0.73225 0,0.56489 -0.63462,1.20648 -1.56911,1.20648 z M 2.1061,-0.251059 c -0.21619,0 -0.22316,-0.006973 -0.22316,-0.069738 0,-0.006974 0,-0.041843 0.02789,-0.146451 l 0.4812,-1.910832 h 1.47846 c 0.65554,0 0.9066,0.43238 0.9066,0.83686 0,0.690411 -0.70436,1.290161 -1.5482,1.290161 z"
             inkscape:connector-curvature="0" />
          <path
             id="equation_03_03"
             d="m 5.87895,-4.81196 c 0,-0.03486 -0.02092,-0.09066 -0.09066,-0.09066 -0.04881,0 -0.06276,0.01395 -0.12553,0.08369 l -0.50909,0.53699 c -0.06276,-0.08369 -0.4533,-0.62068 -1.31108,-0.62068 -1.69464,0 -3.354421,1.49938 -3.354421,3.07547 0,1.080948 0.822911,1.966627 2.161891,1.966627 0.6137,0 1.26227,-0.1603985 1.62491,-0.550934 0.06974,0.153425 0.25803,0.40448315 0.34172,0.40448315 0.06276,0 0.07671,-0.02789535 0.11158,-0.17434615 l 0.1325,-0.536986 c 0.03487,-0.12553 0.13251,-0.543964 0.15343,-0.627644 0.08368,-0.31383 0.09066,-0.3208 0.50211,-0.32777 0.04882,0 0.15343,0 0.15343,-0.14645 0,-0.06974 -0.04882,-0.10461 -0.10461,-0.10461 -0.23014,0 -0.52304,0.02789 -0.76712,0.02789 -0.17435,0 -0.40449,0 -0.57883,-0.00697 -0.17434,-0.00697 -0.37659,-0.02092 -0.55094,-0.02092 -0.04881,0 -0.15342,0 -0.15342,0.15342 0,0.09764 0.07671,0.09764 0.25106,0.09764 0.1325,0 0.27198,0 0.40448,0.01394 0.22316,0.02093 0.23014,0.04882 0.23014,0.13251 0,0.02789 0,0.04184 -0.04882,0.22316 -0.04882,0.19527 -0.12553,0.509091 -0.15342,0.57883 -0.20225,0.425405 -0.85081,0.613698 -1.39477,0.613698 -0.69739,0 -1.61096,-0.334744 -1.61096,-1.513328 0,-0.7462 0.34869,-1.68069 0.86476,-2.20373 0.7183,-0.71134 1.4645,-0.82292 1.85504,-0.82292 0.80897,0 1.28319,0.58581 1.28319,1.36688 0,0.19527 -0.02092,0.24408 -0.02092,0.28593 0,0.09066 0.09066,0.09066 0.12552,0.09066 0.11159,0 0.11159,-0.02093 0.14646,-0.15343 z"
             inkscape:connector-curvature="0" />
        </defs>
        <g
           id="equation_03_g">
          <use
             id="use4103"
             y="62.764599"
             xlink:href="#equation_03_00"
             x="76.712303"
             width="100%"
             height="100%" />
          <use
             id="use4105"
             y="64.259003"
             xlink:href="#equation_03_02"
             x="83.118896"
             width="100%"
             height="100%" />
          <use
             id="use4107"
             y="62.764599"
             xlink:href="#equation_03_01"
             x="92.190002"
             width="100%"
             height="100%" />
          <use
             id="use4109"
             y="62.764599"
             xlink:href="#equation_03_00"
             x="102.153"
             width="100%"
             height="100%" />
          <use
             id="use4111"
             y="64.259003"
             xlink:href="#equation_03_03"
             x="108.559"
             width="100%"
             height="100%" />
        </g>
      </g>
      <g
         transform="translate(-25.891369,-21.733631)"
         id="equation_01"
         style="fill:#000000"
         title="$F_D$">
        <defs
           id="defs4199">
          <path
             inkscape:connector-curvature="0"
             d="m 1.31806,-0.54396 c -0.05579,0.237111 -0.06974,0.292901 -0.613701,0.292901 -0.12553,0 -0.209216,0 -0.209216,0.1534251 C 0.495143,0 0.578829,0 0.704359,0 H 3.19402 c 1.5482,0 3.03363,-1.42267 3.03363,-2.94296 0,-1.01819 -0.70436,-1.82018 -1.8411,-1.82018 H 1.84807 c -0.13948,0 -0.22316,0 -0.22316,0.15343 0,0.09763 0.07671,0.09763 0.23013,0.09763 0.11159,0 0.13948,0 0.26501,0.01395 0.13948,0.01395 0.15342,0.02789 0.15342,0.09763 0,0.01395 0,0.04882 -0.02789,0.15343 z M 2.8802,-4.27497 c 0.05579,-0.21619 0.06276,-0.23711 0.35567,-0.23711 h 0.89265 c 0.78107,0 1.43661,0.39054 1.43661,1.33898 0,0.1604 -0.06974,1.36687 -0.76712,2.16189 -0.27198,0.313825 -0.87173,0.760151 -1.72952,0.760151 H 2.12005 c -0.21619,0 -0.22316,-0.006973 -0.22316,-0.069738 0,-0.006974 0,-0.041843 0.02789,-0.146451 z"
             id="equation_01_00" />
          <path
             inkscape:connector-curvature="0"
             d="m 3.01868,-3.23786 h 0.96638 c 0.74719,0 0.8269,0.1594 0.8269,0.44832 0,0.06974 0,0.18929 -0.06974,0.48817 -0.01993,0.04981 -0.02989,0.08966 -0.02989,0.10959 0,0.0797 0.05977,0.11955 0.11955,0.11955 0.09963,0 0.09963,-0.02989 0.14944,-0.20921 l 0.54795,-2.1619 c 0.02988,-0.10959 0.02988,-0.12951 0.02988,-0.1594 0,-0.01993 -0.01992,-0.10959 -0.11955,-0.10959 -0.09963,0 -0.10959,0.04981 -0.14944,0.20922 C 5.08095,-3.72603 4.85181,-3.5467 4.00498,-3.5467 H 3.09838 L 3.73599,-6.07721 C 3.82565,-6.4259 3.83562,-6.46575 4.27397,-6.46575 h 1.31507 c 1.22541,0 1.45455,0.32876 1.45455,1.09589 0,0.22914 0,0.26899 -0.02989,0.53798 -0.01993,0.12951 -0.01993,0.14944 -0.01993,0.17933 0,0.04981 0.02989,0.11955 0.11956,0.11955 0.10958,0 0.11955,-0.05978 0.13947,-0.24907 L 7.45205,-6.5056 c 0.02989,-0.269 -0.01992,-0.269 -0.26899,-0.269 H 2.30137 c -0.19925,0 -0.29888,0 -0.29888,0.19926 0,0.10959 0.08966,0.10959 0.27895,0.10959 0.36862,0 0.64758,0 0.64758,0.17932 0,0.03985 0,0.05978 -0.04982,0.23911 l -1.31507,5.270234 c -0.09962,0.388543 -0.11955,0.468244 -0.906596,0.468244 -0.169365,0 -0.278954,0 -0.278954,0.18929 C 0.37858,0 0.498132,0 0.52802,0 0.816936,0 1.55417,-0.0298879 1.84309,-0.0298879 2.17186,-0.0298879 2.99875,0 3.32752,0 c 0.08967,0 0.20922,0 0.20922,-0.18929 0,-0.079701 -0.05978,-0.099627 -0.05978,-0.109589 -0.02989,-0.009963 -0.04981,-0.009963 -0.27895,-0.009963 -0.21918,0 -0.26899,0 -0.51806,-0.019925 -0.28892,-0.029888 -0.3188,-0.069739 -0.3188,-0.199253 0,-0.019925 0,-0.079701 0.03985,-0.229141 z"
             id="equation_01_01" />
        </defs>
        <g
           id="equation_01_g">
          <use
             height="100%"
             width="100%"
             x="76.712303"
             xlink:href="#equation_01_01"
             y="62.764599"
             id="use4201" />
          <use
             height="100%"
             width="100%"
             x="83.118896"
             xlink:href="#equation_01_00"
             y="64.259003"
             id="use4203" />
        </g>
      </g>
    </g>
  </g>
</svg>
